<svg xmlns="http://www.w3.org/2000/svg" width="121.294" height="15.492" viewBox="0 0 121.294 15.492">
  <g id="title_logo" transform="translate(-15 -19.5)">
    <path id="패스_813" data-name="패스 813" d="M4.354-5.8a1.067,1.067,0,0,1-.287.441Q3.822-5.1,3.5-4.8q-.476.448-.952.854T1.414-3.01L.322-4.3q.546-.42,1.1-.9t1.043-.945a3.215,3.215,0,0,0,.721-.98A2.97,2.97,0,0,0,3.4-8.33v-2.1H5.194V-8.4a4.8,4.8,0,0,0,.042.672,2.218,2.218,0,0,0,.14.532,1.841,1.841,0,0,0,.273.455,3.476,3.476,0,0,0,.455.455q.5.434,1.022.826T8.148-4.7L7.126-3.472q-.406-.294-.868-.644t-.952-.756q-.364-.294-.616-.518A1.145,1.145,0,0,1,4.368-5.8Zm5.1-.952h-2.3V-8.26h2.3V-11h1.764v9.24H9.45ZM4.7.364h6.72V1.876h-8.5V-2.548H4.7ZM18.228-3.248V-4.1H13.146V-5.46H25.074V-4.1H19.992v.854h3.416V.07H16.492V.8h7.294v1.33h-9V-1.2H21.7v-.714H14.714v-1.33Zm-3.416-2.94v-4.718h1.736v1.148h5.124v-1.148h1.736v4.718Zm1.736-1.358h5.124V-8.4H16.548Zm14.42,6.44V-3.318H27.1v-1.47H28.77V-8.5H27.188v-1.47h9.3V-8.5H34.958v3.71H36.6v1.47H32.732v2.212h5.082V.378H25.886V-1.106Zm-.434-3.682h2.66V-8.5h-2.66ZM42.938.364h6.72V1.876h-8.5V-2.492h1.778Zm6.51-2.1H47.684V-11h1.764ZM42.392-3.724a3.819,3.819,0,0,1-1.407-.245,3.163,3.163,0,0,1-1.057-.665,2.911,2.911,0,0,1-.665-.966,2.882,2.882,0,0,1-.231-1.134v-.784a2.882,2.882,0,0,1,.231-1.134,2.911,2.911,0,0,1,.665-.966,3.163,3.163,0,0,1,1.057-.665,3.819,3.819,0,0,1,1.407-.245,3.819,3.819,0,0,1,1.407.245,3.163,3.163,0,0,1,1.057.665,2.911,2.911,0,0,1,.665.966,2.882,2.882,0,0,1,.231,1.134v.784A2.882,2.882,0,0,1,45.521-5.6a2.911,2.911,0,0,1-.665.966,3.163,3.163,0,0,1-1.057.665A3.819,3.819,0,0,1,42.392-3.724Zm0-5.278a1.8,1.8,0,0,0-.707.133,1.592,1.592,0,0,0-.532.357,1.6,1.6,0,0,0-.336.518,1.591,1.591,0,0,0-.119.6v.532a1.574,1.574,0,0,0,.119.609,1.62,1.62,0,0,0,.336.511,1.592,1.592,0,0,0,.532.357,1.8,1.8,0,0,0,.707.133,1.8,1.8,0,0,0,.707-.133,1.592,1.592,0,0,0,.532-.357,1.62,1.62,0,0,0,.336-.511,1.574,1.574,0,0,0,.119-.609v-.532a1.591,1.591,0,0,0-.119-.6,1.6,1.6,0,0,0-.336-.518,1.592,1.592,0,0,0-.532-.357A1.8,1.8,0,0,0,42.392-9Zm20.9,7.882v1.5H51.366v-1.5ZM61.768-2.9H52.906v-7.14h8.722v1.484H54.656V-7.21h6.86v1.484h-6.86v1.344h7.112Z" transform="translate(73 32)" fill="#fff"/>
    <g id="그룹_845" data-name="그룹 845" transform="translate(-798.83 -137.756)">
      <path id="패스_784" data-name="패스 784" d="M814.073,160.819v3.139h5.737l-5.981,7.451v2.3h10.963v-3.139h-6.066l5.871-7.328v-2.422Z" transform="translate(0 -2.284)" fill="#fff" style="isolation: isolate"/>
      <path id="패스_785" data-name="패스 785" d="M875.848,163.421c-.8-2.21-2.412-3.655-5.591-3.655a6.16,6.16,0,0,0-6.017,6.4c0,3.766,1.511,6.014,4.9,6.866a9.2,9.2,0,0,0,6.541-1.21l-1.437-2.383a5.5,5.5,0,0,1-3.7.766,2.731,2.731,0,0,1-2.668-2.408H876.2A8.9,8.9,0,0,0,875.848,163.421Zm-8.015,1.63a2.522,2.522,0,0,1,5.043,0Z" transform="translate(-37.369 -1.499)" fill="#fff" style="isolation: isolate"/>
      <path id="패스_786" data-name="패스 786" d="M922.213,160.819v12.888h3.946v-6.444a2.552,2.552,0,0,1,2.278-2.675h3.52v-3.682s-3.036-.035-3.922,0a2.379,2.379,0,0,0-1.864,1.174v-1.26Z" transform="translate(-80.371 -2.284)" fill="#fff" style="isolation: isolate"/>
      <path id="제외_1" data-name="제외 1" d="M-870.016,152.248A7.209,7.209,0,0,1-877.17,145a7.209,7.209,0,0,1,7.154-7.246,7.156,7.156,0,0,1,6.551,4.334h-.346l-.682,2.3-.739-2.3h-1.283c0,.01.156.422.348.944.356.969.844,2.3.9,2.466a.548.548,0,0,1-.067.477.365.365,0,0,1-.3.16h-.516l.081,1.061h.918c.473,0,.9-.378,1.137-1.012.151-.4.623-1.695.993-2.709a7.366,7.366,0,0,1,.16,1.525A7.209,7.209,0,0,1-870.016,152.248Zm1.378-9.462c.282,0,.583.105.583.4,0,.33-.3.36-.755.406-.18.018-.384.039-.6.081-.816.156-1.149.483-1.149,1.129,0,.7.5,1.132,1.308,1.132a1.561,1.561,0,0,0,1.2-.454s0,.032,0,.066,0,.093,0,.141a.323.323,0,0,0,.065.183h1.274a.025.025,0,0,1-.005-.008,1.633,1.633,0,0,1-.189-.649V143.2c0-.01,0-.021,0-.033a.968.968,0,0,0-.258-.743,2.042,2.042,0,0,0-1.472-.425,1.912,1.912,0,0,0-1.442.48,1.152,1.152,0,0,0-.312.782h1.141a.492.492,0,0,1,.28-.41A.773.773,0,0,1-868.637,142.786Zm-6.3-2.03v5.067h1.251v-1.681l1.2.008a1.573,1.573,0,0,0,1.615-1.454c0-1.008-.2-1.94-1.672-1.94h-2.4Zm6.1,4.377a.606.606,0,0,1-.326-.089.322.322,0,0,1-.135-.359.588.588,0,0,1,.525-.425,1.994,1.994,0,0,0,.719-.186h0v0a1.43,1.43,0,0,1-.1.616A.733.733,0,0,1-868.833,145.132Zm-3.863-2.055h-.99v-1.25h1.006a.553.553,0,0,1,.561.625A.588.588,0,0,1-872.7,143.077Z" transform="translate(1729.691 20)" fill="#fff" stroke="rgba(0,0,0,0)" stroke-miterlimit="10" stroke-width="1"/>
    </g>
  </g>
</svg>
