<svg xmlns="http://www.w3.org/2000/svg" width="121.294" height="14.492" viewBox="0 0 121.294 14.492">
    <defs>
        <style>
            .cls-2{fill:#3b4094;isolation:isolate}.cls-3{fill:#fff}
        </style>
    </defs>
    <g id="title_logo" transform="translate(-15 -20)">
        <path id="패스_813" data-name="패스 813" d="M4.354-5.8a1.067 1.067 0 0 1-.287.441Q3.822-5.1 3.5-4.8q-.476.448-.952.854t-1.134.936L.322-4.3q.546-.42 1.1-.9t1.043-.945a3.215 3.215 0 0 0 .721-.98A2.97 2.97 0 0 0 3.4-8.33v-2.1h1.794v2.03a4.8 4.8 0 0 0 .042.672 2.218 2.218 0 0 0 .14.532 1.841 1.841 0 0 0 .273.455 3.476 3.476 0 0 0 .455.455q.5.434 1.022.826t1.022.76L7.126-3.472q-.406-.294-.868-.644t-.952-.756q-.364-.294-.616-.518a1.145 1.145 0 0 1-.322-.41zm5.1-.952h-2.3V-8.26h2.3V-11h1.764v9.24H9.45zM4.7.364h6.72v1.512h-8.5v-4.424H4.7zm13.528-3.612V-4.1h-5.082v-1.36h11.928v1.36h-5.082v.854h3.416V.07h-6.916V.8h7.294v1.33h-9V-1.2H21.7v-.714h-6.986v-1.33zm-3.416-2.94v-4.718h1.736v1.148h5.124v-1.148h1.736v4.718zm1.736-1.358h5.124V-8.4h-5.124zm14.42 6.44v-2.212H27.1v-1.47h1.67V-8.5h-1.582v-1.47h9.3v1.47h-1.53v3.71H36.6v1.47h-3.868v2.212h5.082V.378H25.886v-1.484zm-.434-3.682h2.66V-8.5h-2.66zM42.938.364h6.72v1.512h-8.5v-4.368h1.778zm6.51-2.1h-1.764V-11h1.764zm-7.056-1.988a3.819 3.819 0 0 1-1.407-.245 3.163 3.163 0 0 1-1.057-.665 2.911 2.911 0 0 1-.665-.966 2.882 2.882 0 0 1-.231-1.134v-.784a2.882 2.882 0 0 1 .231-1.134 2.911 2.911 0 0 1 .665-.966 3.163 3.163 0 0 1 1.057-.665 3.819 3.819 0 0 1 1.407-.245 3.819 3.819 0 0 1 1.407.245 3.163 3.163 0 0 1 1.057.665 2.911 2.911 0 0 1 .665.966 2.882 2.882 0 0 1 .231 1.134v.784a2.882 2.882 0 0 1-.231 1.134 2.911 2.911 0 0 1-.665.966 3.163 3.163 0 0 1-1.057.665 3.819 3.819 0 0 1-1.407.245zm0-5.278a1.8 1.8 0 0 0-.707.133 1.592 1.592 0 0 0-.532.357 1.6 1.6 0 0 0-.336.518 1.591 1.591 0 0 0-.119.6v.532a1.574 1.574 0 0 0 .119.609 1.62 1.62 0 0 0 .336.511 1.592 1.592 0 0 0 .532.357 1.8 1.8 0 0 0 .707.133 1.8 1.8 0 0 0 .707-.133 1.592 1.592 0 0 0 .532-.357 1.62 1.62 0 0 0 .336-.511 1.574 1.574 0 0 0 .119-.609v-.532a1.591 1.591 0 0 0-.119-.6 1.6 1.6 0 0 0-.336-.518 1.592 1.592 0 0 0-.532-.357A1.8 1.8 0 0 0 42.392-9zm20.9 7.882v1.5H51.366v-1.5zM61.768-2.9h-8.862v-7.14h8.722v1.484h-6.972v1.346h6.86v1.484h-6.86v1.344h7.112z" transform="translate(73 32)" style="fill:#111"/>
        <g id="그룹_845" data-name="그룹 845" transform="translate(-798.83 -137.756)">
            <path id="패스_784" data-name="패스 784" class="cls-2" d="M814.073 160.819v3.139h5.737l-5.981 7.451v2.3h10.963v-3.139h-6.066l5.871-7.328v-2.422z" transform="translate(0 -2.284)"/>
            <path id="패스_785" data-name="패스 785" class="cls-2" d="M875.848 163.421c-.8-2.21-2.412-3.655-5.591-3.655a6.16 6.16 0 0 0-6.017 6.4c0 3.766 1.511 6.014 4.9 6.866a9.2 9.2 0 0 0 6.541-1.21l-1.437-2.383a5.5 5.5 0 0 1-3.7.766 2.731 2.731 0 0 1-2.668-2.408h8.324a8.9 8.9 0 0 0-.352-4.376zm-8.015 1.63a2.522 2.522 0 0 1 5.043 0z" transform="translate(-37.369 -1.499)"/>
            <path id="패스_786" data-name="패스 786" class="cls-2" d="M922.213 160.819v12.888h3.946v-6.444a2.552 2.552 0 0 1 2.278-2.675h3.52v-3.682s-3.036-.035-3.922 0a2.379 2.379 0 0 0-1.864 1.174v-1.26z" transform="translate(-80.371 -2.284)"/>
            <path id="패스_787" data-name="패스 787" class="cls-2" d="M976.411 166.186c-.26.691-.7 1.012-1.137 1.012h-.918l-.081-1.061h.515a.462.462 0 0 0 .37-.638c-.093-.267-1.251-3.409-1.251-3.409h1.283l.739 2.3.682-2.3h.347a7.262 7.262 0 1 0 .6 2.912 7.355 7.355 0 0 0-.16-1.525c-.371 1.023-.84 2.313-.989 2.709z" transform="translate(-110.734)"/>
            <g id="그룹_844" data-name="그룹 844" transform="translate(854.754 160.755)">
                <path id="패스_788" data-name="패스 788" class="cls-3" d="M974.428 169.277h-2.4v5.067h1.251v-1.681l1.2.008a1.568 1.568 0 0 0 1.616-1.454c.005-1.071-.238-1.94-1.667-1.94zm-.154 2.322h-.991v-1.251h1.007a.551.551 0 0 1 .56.625.589.589 0 0 1-.577.627z" transform="translate(-972.032 -169.277)"/>
                <path id="패스_789" data-name="패스 789" class="cls-3" d="M992.868 175.362c0-.227.1-1.2-1.73-1.2s-1.754 1.262-1.754 1.262h1.141a.485.485 0 0 1 .28-.41c.206-.113.922-.122.922.337s-.577.337-1.36.487-1.149.455-1.149 1.129.471 1.133 1.307 1.133a1.556 1.556 0 0 0 1.2-.455v.207a.325.325 0 0 0 .065.183h1.275a1.675 1.675 0 0 1-.195-.658zm-1.234 1.494a.731.731 0 0 1-1.011.349c-.3-.191-.118-.723.39-.784a1.994 1.994 0 0 0 .719-.187 1.343 1.343 0 0 1-.098.622z" transform="translate(-984.845 -172.918)"/>
                <path id="패스_790" data-name="패스 790" class="cls-3" d="m1007.15 176.848-.739-2.274h-1.283s1.157 3.1 1.251 3.366a.456.456 0 0 1-.37.63h-.516l.081 1.048h.918c.435 0 .877-.317 1.137-1a469 469 0 0 0 .993-2.674 7.1 7.1 0 0 0-.443-1.37h-.347z" transform="translate(-996.707 -173.226)"/>
            </g>
        </g>
    </g>
</svg>
