<svg xmlns="http://www.w3.org/2000/svg" width="30" height="30" viewBox="0 0 30 30">
    <path data-name="패스 847" d="m-557.3 399.006 5.275-5.275a.717.717 0 0 0 0-1.015.718.718 0 0 0-1.015 0l-5.275 5.275-5.275-5.275a.718.718 0 0 0-1.015 0 .718.718 0 0 0 0 1.015l5.275 5.275-5.275 5.275a.718.718 0 0 0 0 1.015.715.715 0 0 0 .507.21.716.716 0 0 0 .508-.21l5.275-5.275 5.275 5.275a.715.715 0 0 0 .507.21.716.716 0 0 0 .507-.21.718.718 0 0 0 0-1.015z" transform="translate(573.814 -383.506)" style="fill:#fcfcfc"/>
    <path data-name="사각형 459" style="fill:none" d="M0 0h30v30H0z"/>
</svg>
