<svg xmlns="http://www.w3.org/2000/svg" width="24" height="24" viewBox="0 0 24 24">
    <path data-name="패스 809" d="m-559.033 397.506 4.058-4.058a.552.552 0 0 0 0-.781.552.552 0 0 0-.781 0l-4.058 4.057-4.057-4.057a.552.552 0 0 0-.781 0 .552.552 0 0 0 0 .781l4.057 4.058-4.057 4.057a.552.552 0 0 0 0 .781.55.55 0 0 0 .39.162.55.55 0 0 0 .39-.162l4.057-4.058 4.058 4.058a.55.55 0 0 0 .39.162.551.551 0 0 0 .39-.162.552.552 0 0 0 0-.781z" transform="translate(571.813 -385.506)" style="fill:#929292"/>
    <path data-name="사각형 396" style="fill:none" d="M0 0h24v24H0z"/>
</svg>
