<svg xmlns="http://www.w3.org/2000/svg" width="30" height="30" viewBox="0 0 30 30">
    <defs>
        <clipPath id="9sz5xlvdia">
            <path data-name="사각형 541" style="fill:#383838" d="M0 0h20.528v19.253H0z"/>
        </clipPath>
    </defs>
    <g data-name="그룹 1289">
        <g data-name="그룹 1288" style="clip-path:url(#9sz5xlvdia)" transform="translate(5 5.899)">
            <path data-name="패스 860" d="M18.64 30.371H6.175a2.961 2.961 0 0 1-2.957-2.957V17.358a.668.668 0 1 1 1.335 0v10.056a1.624 1.624 0 0 0 1.622 1.622H18.64a1.624 1.624 0 0 0 1.622-1.622V17.358a.668.668 0 1 1 1.335 0v10.056a2.961 2.961 0 0 1-2.957 2.957" transform="translate(-2.144 -11.118)" style="fill:#383838"/>
            <path data-name="패스 861" d="M27.019 28.238h-4.8a.668.668 0 1 1 0-1.335h4.8a.668.668 0 1 1 0 1.335" transform="translate(-14.353 -17.921)" style="fill:#383838"/>
            <path data-name="패스 862" d="M18.556 6.859H12.58a.668.668 0 0 1-.656-.545 1.688 1.688 0 0 0-3.318 0 .668.668 0 0 1-.657.545H1.972A1.975 1.975 0 0 1 0 4.887V1.972A1.975 1.975 0 0 1 1.972 0h16.584a1.974 1.974 0 0 1 1.972 1.972v2.915a1.974 1.974 0 0 1-1.972 1.972m-5.475-1.335h5.475a.637.637 0 0 0 .637-.637V1.972a.637.637 0 0 0-.637-.637H1.972a.638.638 0 0 0-.637.637v2.915a.637.637 0 0 0 .637.637h5.476a3.024 3.024 0 0 1 5.633 0" style="fill:#383838"/>
        </g>
    </g>
    <path data-name="사각형 542" style="fill:none" d="M0 0h30v30H0z"/>
</svg>
