<svg xmlns="http://www.w3.org/2000/svg" width="30" height="30" viewBox="0 0 30 30">
    <defs>
        <style>
            .cls-1{fill:#383838}
        </style>
    </defs>
    <g id="btn_alert_new" transform="translate(-315 -13)">
        <g id="btn_alert" transform="translate(-1)">
            <g id="그룹_95" data-name="그룹 95" transform="translate(428.301 -474.557)">
                <g id="그룹_89" data-name="그룹 89" transform="translate(-97.854 499.343)">
                    <path id="패스_26" data-name="패스 26" class="cls-1" d="M-63.592 524.965a12.528 12.528 0 0 1-7.538-2.106.62.62 0 0 1-.114-.869.621.621 0 0 1 .869-.115c2.46 1.888 6.168 1.948 8.355 1.779-.764-.549-.733-.841-.71-1.057a.748.748 0 0 1 .6-.64 4.13 4.13 0 0 0 2.63-2.871 4.279 4.279 0 0 0-.68-3.036 5.364 5.364 0 0 0-3.8-2.167.62.62 0 0 1-.511-.713.622.622 0 0 1 .713-.511 6.632 6.632 0 0 1 4.628 2.7 5.456 5.456 0 0 1 .855 4.008 5.338 5.338 0 0 1-2.722 3.455c.33.2.764.446 1.19.657a.621.621 0 0 1 .34.637.62.62 0 0 1-.493.527 19.943 19.943 0 0 1-3.612.322z" transform="translate(71.372 -512.651)"/>
                </g>
                <g id="그룹_90" data-name="그룹 90" transform="translate(-109.755 493.361)">
                    <path id="패스_27" data-name="패스 27" class="cls-1" d="M-103.505 508.684a24.446 24.446 0 0 1-4.012-.314.621.621 0 0 1-.5-.518.621.621 0 0 1 .328-.643 17.478 17.478 0 0 0 1.71-1.008 6.543 6.543 0 0 1-3.644-4.27 6.743 6.743 0 0 1 1.248-5.331c1.06-1.406 3.25-3.108 7.665-3.233 4.157-.121 7.419 1.766 8.72 5.041a6.4 6.4 0 0 1-1.37 7.164c-2.877 2.56-7.067 3.112-10.145 3.112zm-1.96-1.326c2.776.2 8.063.152 11.277-2.712a5.166 5.166 0 0 0 1.043-5.78c-1.1-2.77-3.925-4.359-7.533-4.259-3.149.09-5.407 1.012-6.71 2.74a5.5 5.5 0 0 0-1.037 4.278 5.334 5.334 0 0 0 3.471 3.636.772.772 0 0 1 .643.654c.032.248.079.623-1.154 1.443z" transform="translate(109.755 -493.361)"/>
                </g>
                <g id="그룹_94" data-name="그룹 94" transform="translate(-104.641 499.769)">
                    <g id="그룹_91" data-name="그룹 91">
                        <circle id="타원_7" data-name="타원 7" class="cls-1" cx=".758" cy=".758" r=".758"/>
                    </g>
                    <g id="그룹_92" data-name="그룹 92" transform="translate(3.32)">
                        <circle id="타원_8" data-name="타원 8" class="cls-1" cx=".758" cy=".758" r=".758"/>
                    </g>
                    <g id="그룹_93" data-name="그룹 93" transform="translate(6.641)">
                        <circle id="타원_9" data-name="타원 9" class="cls-1" cx=".758" cy=".758" r=".758"/>
                    </g>
                </g>
            </g>
            <path id="사각형_34" data-name="사각형 34" transform="translate(316 13)" style="fill:none" d="M0 0h30v30H0z"/>
        </g>
        <circle id="타원_100" data-name="타원 100" cx="1.5" cy="1.5" r="1.5" transform="translate(339 18)" style="fill:#e43d3d"/>
    </g>
</svg>
