<svg xmlns="http://www.w3.org/2000/svg" width="30" height="30" viewBox="0 0 30 30">
    <defs>
        <style>
            .cls-2{fill:#383838}
        </style>
    </defs>
    <g id="btn_home" transform="translate(-315 -13)">
        <path id="사각형_342" data-name="사각형 342" transform="translate(315 13)" style="fill:none" d="M0 0h30v30H0z"/>
        <g id="그룹_895" data-name="그룹 895" transform="translate(520.487 -535.553)">
            <path id="패스_806" data-name="패스 806" class="cls-2" d="m-179.96 564.169-10.082-10.082a.629.629 0 0 0-.89 0l-10.082 10.082a.629.629 0 0 0 0 .89.629.629 0 0 0 .89 0l1.44-1.44v6.6a3.277 3.277 0 0 0 3.274 3.273h1.475a.626.626 0 0 0 .451-.192.628.628 0 0 0 .293-.53v-1.76a.629.629 0 0 0-.629-.629.629.629 0 0 0-.629.629v1.223h-.96a2.017 2.017 0 0 1-2.015-2.015v-7.86l6.939-6.939 6.938 6.939v7.86a2.017 2.017 0 0 1-2.015 2.015h-.961v-5.955a2.656 2.656 0 0 0-2.653-2.653h-2.62a2.656 2.656 0 0 0-2.653 2.653v.347a.629.629 0 0 0 .629.629.629.629 0 0 0 .629-.629v-.347a1.4 1.4 0 0 1 1.395-1.395h2.62a1.4 1.4 0 0 1 1.4 1.395v6.584a.629.629 0 0 0 .629.629h1.59a3.277 3.277 0 0 0 3.273-3.273v-6.6l1.44 1.44a.628.628 0 0 0 .445.184.628.628 0 0 0 .445-.184.629.629 0 0 0-.006-.889z"/>
            <path id="패스_807" data-name="패스 807" class="cls-2" d="M-179.121 598.661a.629.629 0 0 0-.629.629v.466a.629.629 0 0 0 .629.629.629.629 0 0 0 .629-.629v-.466a.629.629 0 0 0-.629-.629z" transform="translate(-14.701 -30.677)"/>
        </g>
    </g>
</svg>
