<svg xmlns="http://www.w3.org/2000/svg" width="34" height="34" viewBox="0 0 34 34">
    <defs>
        <style>
            .cls-2{fill:#697f9c}
        </style>
    </defs>
    <g id="charge_menu_02" transform="translate(0 -290)">
        <path id="사각형_310" data-name="사각형 310" transform="translate(0 290)" style="fill:none" d="M0 0h34v34H0z"/>
        <g id="그룹_893" data-name="그룹 893" transform="translate(-70.321 -252.22)">
            <path id="패스_799" data-name="패스 799" class="cls-2" d="M182.879 940.68h-20.724a1.242 1.242 0 0 1-1.255-1.48l2.48-16.217a1.793 1.793 0 0 1 1.711-1.484h20.723a1.243 1.243 0 0 1 1.257 1.484l-2.482 16.217a1.793 1.793 0 0 1-1.71 1.48z" transform="translate(-87.694 -371.905)"/>
            <path id="패스_800" data-name="패스 800" class="cls-2" d="m228.858 929.139 1.906 14.622a1.243 1.243 0 0 1-1.257 1.484h-3.067z" transform="translate(-128.67 -376.682)"/>
            <path id="패스_805" data-name="패스 805" d="M191.419 939.152h-.96l.316-1.167a.656.656 0 0 0-1.267-.343l-.408 1.51h-1.583l-.126-.334c0-.006-.007-.012-.009-.018a.633.633 0 0 0-.031-.062.577.577 0 0 0-.03-.052.589.589 0 0 0-.04-.052c-.013-.016-.025-.032-.04-.046a.625.625 0 0 0-.051-.044c-.015-.012-.03-.025-.046-.036a.664.664 0 0 0-.059-.034c-.018-.009-.035-.019-.054-.027l-.022-.011c-.015-.005-.029-.007-.044-.011s-.039-.012-.058-.016a.676.676 0 0 0-.067-.009h-.126c-.022 0-.042 0-.062.009a.584.584 0 0 0-.062.017c-.014 0-.028.006-.042.011l-.021.011a.561.561 0 0 0-.054.027.586.586 0 0 0-.059.034c-.016.011-.031.024-.046.036a.658.658 0 0 0-.051.044c-.015.015-.027.031-.04.047a.447.447 0 0 0-.07.1.63.63 0 0 0-.031.062c0 .006-.006.012-.009.018l-.126.334h-1.583l-.408-1.51a.656.656 0 0 0-1.267.343l.315 1.167h-.96a.656.656 0 0 0 0 1.313h1.315l.929 3.435a.657.657 0 0 0 .6.484h.032a.657.657 0 0 0 .614-.424l1.151-3.052 1.152 3.052a.656.656 0 0 0 .613.424h.032a.657.657 0 0 0 .6-.484l.929-3.435h1.315a.656.656 0 0 0 0-1.312zm-6.3 2.443-.306-1.131h.733zm3.325 0-.427-1.131h.733z" transform="translate(-100.568 -381.693)" style="fill:#fff"/>
        </g>
    </g>
</svg>
