<svg xmlns="http://www.w3.org/2000/svg" width="34" height="34" viewBox="0 0 34 34">
    <path data-name="사각형 313" style="fill:none" d="M0 0h34v34H0z"/>
    <g data-name="그룹 1315">
        <g data-name="그룹 1316">
            <path data-name="제외 4" d="M-692.126-1527.706a16.291 16.291 0 0 1-7.236-1.951 8.092 8.092 0 0 1-4.606-7.112 11.856 11.856 0 0 1 1.124-4.924 17.368 17.368 0 0 1 2.473-3.87 21.208 21.208 0 0 1 3.6-3.437c.014.009 1.42.877 4.921.877s4.752-.869 4.765-.877a20.25 20.25 0 0 1 4.824 5.243c1.42 2.264 2.735 5.815 2.265 8.26a7.964 7.964 0 0 1-1.745 3.671 10.062 10.062 0 0 1-3.081 2.405 16.285 16.285 0 0 1-7.304 1.715zm-3.186-15.652v10.088h1.807v-3.414h1.941a4.173 4.173 0 0 0 1.946-.423 2.892 2.892 0 0 0 1.221-1.177 3.56 3.56 0 0 0 .414-1.734 3.607 3.607 0 0 0-.409-1.732 2.875 2.875 0 0 0-1.212-1.182 4.093 4.093 0 0 0-1.936-.427zm3.507 5.182h-1.7v-3.665h1.69a2.446 2.446 0 0 1 1.113.227 1.465 1.465 0 0 1 .655.635 2.081 2.081 0 0 1 .211.96 2.1 2.1 0 0 1-.211.963 1.5 1.5 0 0 1-.655.645 2.362 2.362 0 0 1-1.098.235z" transform="translate(708.936 1558.87)" style="stroke:transparent;stroke-miterlimit:10;fill:#697f9c"/>
            <path data-name="패스 867" d="M81.78 7.176c1.487 0 6.788-.626 7.546-2.955.558-1.714-2.862-2-3.89-2.259A3.614 3.614 0 0 1 83.353.528c-.558-.675-2.637-.689-3.547-.117s-.939 1.241-2.2 1.552S73.52 2.4 73.531 3.7c.011 1.183.7 1.818 2.407 2.545a17.143 17.143 0 0 0 5.842.929" transform="translate(-64.495 2.3)" style="fill:#697f9c"/>
        </g>
    </g>
</svg>
