<svg xmlns="http://www.w3.org/2000/svg" width="34" height="34" viewBox="0 0 34 34">
    <g data-name="그룹 732" transform="translate(5 5)">
        <circle data-name="타원 99" cx="12.5" cy="12.5" r="12.5" style="fill:#6760ea;isolation:isolate"/>
        <path data-name="패스 715" d="M-157.2 669.906a3.092 3.092 0 0 1-3.089-3.089 3.093 3.093 0 0 1 3.089-3.089 3.086 3.086 0 0 1 2.973 2.3h2.069V657.6h-1.949v5.249a5.008 5.008 0 0 0-3.093-1.07 5.044 5.044 0 0 0-5.037 5.038 5.043 5.043 0 0 0 5.037 5.037 5.041 5.041 0 0 0 4.9-3.873h-2.047a3.081 3.081 0 0 1-2.853 1.925z" transform="translate(169.409 -652.883)" style="fill:#fff"/>
    </g>
    <path data-name="사각형 313" style="fill:none" d="M0 0h34v34H0z"/>
</svg>
