<svg xmlns="http://www.w3.org/2000/svg" width="45" height="34" viewBox="0 0 45 34">
    <defs>
        <style>
            .cls-2{fill:#0050ff}
        </style>
    </defs>
    <g id="charge_menu_toss" transform="translate(0 -351)">
        <path id="사각형_306" data-name="사각형 306" transform="translate(0 351)" style="fill:none" d="M0 0h45v34H0z"/>
        <g id="그룹_533" data-name="그룹 533" transform="translate(0 362.851)">
            <path id="패스_514" data-name="패스 514" class="cls-2" d="M289.464 65.275h1.393v-1.626l1.89-1.116v2.742h1.979v1.7h-1.979v3.1c0 .8.332 1.072.818 1.072a1.015 1.015 0 0 0 .7-.276l.873 1.5a2.972 2.972 0 0 1-1.8.575c-1.57 0-2.5-.752-2.5-2.8v-3.158h-1.393v-1.713z" transform="translate(-274.573 -62.533)"/>
            <path id="패스_515" data-name="패스 515" class="cls-2" d="M373.407 102.742a3.98 3.98 0 1 1 3.969 3.913 3.891 3.891 0 0 1-3.969-3.913zm6.047-.011a2.067 2.067 0 1 0-2.067 2.1 2.072 2.072 0 0 0 2.067-2.1z" transform="translate(-352.58 -96.253)"/>
            <path id="패스_516" data-name="패스 516" class="cls-2" d="m491.176 104.509 1.857-.73a1.789 1.789 0 0 0 1.725 1.017c.785 0 1.194-.376 1.194-.818 0-.542-.807-.674-1.769-.862-1.271-.265-2.675-.652-2.675-2.244 0-1.271 1.227-2.366 3.084-2.355a3.561 3.561 0 0 1 3.228 1.6l-1.758.707a1.631 1.631 0 0 0-1.481-.8c-.752 0-1.117.31-1.117.73 0 .475.608.6 1.713.84 1.249.254 2.731.685 2.731 2.3 0 1.172-1.05 2.5-3.228 2.476a3.545 3.545 0 0 1-3.504-1.861z" transform="translate(-461.991 -95.963)"/>
            <path id="패스_517" data-name="패스 517" class="cls-2" d="m593.211 104.509 1.857-.73a1.789 1.789 0 0 0 1.725 1.017c.785 0 1.194-.376 1.194-.818 0-.542-.807-.674-1.769-.862-1.271-.265-2.675-.652-2.675-2.244 0-1.271 1.227-2.366 3.084-2.355a3.56 3.56 0 0 1 3.228 1.6l-1.758.707a1.631 1.631 0 0 0-1.482-.8c-.752 0-1.116.31-1.116.73 0 .475.608.6 1.714.84 1.249.254 2.731.685 2.731 2.3 0 1.172-1.05 2.5-3.228 2.476a3.545 3.545 0 0 1-3.505-1.861z" transform="translate(-556.785 -95.963)"/>
            <path id="패스_518" data-name="패스 518" class="cls-2" d="M92.335 76.811a5.194 5.194 0 0 0-4.654-5.174 4.285 4.285 0 0 0-.918-.011c-2.465.166-4.09 1.835-5.174 3.792a15.625 15.625 0 0 0-1.669 4.754 8.377 8.377 0 0 1 2.465-1.15 5.221 5.221 0 0 0 9.949-2.211z" transform="translate(-79.92 -70.963)"/>
        </g>
    </g>
</svg>
