<svg id="알림함_아이콘_이벤트" xmlns="http://www.w3.org/2000/svg" width="16" height="16" viewBox="0 0 16 16">
    <defs>
        <clipPath id="clip-path">
            <path id="사각형_435" data-name="사각형 435" style="fill:#da7676" d="M0 0h11.152v11.136H0z"/>
        </clipPath>
        <style>
            .cls-4{fill:#da7676;fill-rule:evenodd}
        </style>
    </defs>
    <path id="사각형_432" data-name="사각형 432" style="fill:none" d="M0 0h16v16H0z"/>
    <g id="그룹_1053" data-name="그룹 1053" transform="translate(2.275 1.275)">
        <g id="그룹_1052" data-name="그룹 1052" style="clip-path:url(#clip-path)">
            <path id="패스_841" data-name="패스 841" class="cls-4" d="M10.125 4h-.252a2.423 2.423 0 0 1-.484.969 1.726 1.726 0 0 1-1.05.557 3.913 3.913 0 0 1-.672-.026l1.04 2.151h-6.24L3.484 5.5h-.717a1.7 1.7 0 0 1-.97-.478h.009a2.434 2.434 0 0 1-.487-.881L1.279 4h-.253A1.027 1.027 0 0 0 0 5.026v7.031a1.027 1.027 0 0 0 1.026 1.026h9.1a1.027 1.027 0 0 0 1.026-1.026V5.026A1.027 1.027 0 0 0 10.125 4" transform="translate(0 -1.947)"/>
            <path id="패스_842" data-name="패스 842" class="cls-4" d="M5.405 3.079h1.026a17.76 17.76 0 0 0-1.026 2.052H6.9a8 8 0 0 1 .559-1.736 7.272 7.272 0 0 1 .559 1.736H9.51a15.63 15.63 0 0 0-1.026-2.052H9.51a1.549 1.549 0 0 0 1.54-1.54A1.526 1.526 0 0 0 9.51 0a2.733 2.733 0 0 0-2.052 1.187A2.733 2.733 0 0 0 5.405 0a1.526 1.526 0 0 0-1.539 1.539 1.549 1.549 0 0 0 1.539 1.54M9.32 1.027a.514.514 0 1 1-.062 1.025c-.122.006-1.14 0-1.14 0 .532-.739.773-1.025 1.2-1.025m-3.731 0c.428 0 .676.286 1.208 1.025 0 0-1.025.006-1.147 0a.514.514 0 1 1-.062-1.025" transform="translate(-1.882)"/>
        </g>
    </g>
</svg>
