<svg xmlns="http://www.w3.org/2000/svg" width="34" height="34" viewBox="0 0 34 34">
    <g data-name="그룹 26">
        <g data-name="그룹 20">
            <path data-name="패스 1" d="M180.758 386.155a14.822 14.822 0 1 1 14.822-14.822 14.839 14.839 0 0 1-14.822 14.822zm0-28.081a13.258 13.258 0 1 0 13.258 13.258 13.273 13.273 0 0 0-13.258-13.257z" transform="translate(-163.708 -354.386)" style="fill:#111"/>
        </g>
        <g data-name="그룹 25">
            <g data-name="그룹 24">
                <path data-name="패스 5" d="M196.294 380.273h4.549a5.755 5.755 0 0 1 1.869.273 3.629 3.629 0 0 1 1.313.758 3.038 3.038 0 0 1 .776 1.155 4.026 4.026 0 0 1 .256 1.446v.37a3.859 3.859 0 0 1-.273 1.454 3.409 3.409 0 0 1-.8 1.19 3.829 3.829 0 0 1-1.314.811 5.1 5.1 0 0 1-1.825.3h-2.8v4.954h-1.746zm1.746 1.516v4.725h2.5q2.75 0 2.75-2.274v-.317a1.925 1.925 0 0 0-.661-1.613 3.006 3.006 0 0 0-1.895-.52z" transform="translate(-182.505 -369.28)" style="fill:#3646b8"/>
            </g>
        </g>
    </g>
    <path data-name="사각형 26" style="fill:none" d="M0 0h34v34H0z"/>
</svg>
