<svg xmlns="http://www.w3.org/2000/svg" width="34" height="34" viewBox="0 0 34 34">
    <defs>
        <style>
            .cls-2{fill:#a7acb3}.cls-3{isolation:isolate}
        </style>
    </defs>
    <g id="top_menu_02_n" transform="translate(0 -255)">
        <path id="사각형_27" data-name="사각형 27" transform="translate(0 255)" style="fill:none" d="M0 0h34v34H0z"/>
        <g id="그룹_817" data-name="그룹 817" transform="translate(3.021 258.022)">
            <g id="그룹_834" data-name="그룹 834">
                <g id="그룹_830" data-name="그룹 830" transform="translate(.069)">
                    <path id="패스_774" data-name="패스 774" class="cls-2" d="M29.067-195.735a.866.866 0 0 1-.866-.866v-3.874a3.116 3.116 0 0 1 3.094-3.13h3.911a.867.867 0 0 1 .866.866.866.866 0 0 1-.866.866H31.3a1.382 1.382 0 0 0-1.362 1.4v3.874a.866.866 0 0 1-.871.864z" transform="translate(-28.201 203.606)"/>
                </g>
                <g id="그룹_831" data-name="그룹 831" transform="translate(0 20.083)">
                    <path id="패스_775" data-name="패스 775" class="cls-2" d="M35.047-144.745h-3.863a3.13 3.13 0 0 1-3.142-3.111v-3.893a.866.866 0 0 1 .866-.866.866.866 0 0 1 .866.866v3.893a1.4 1.4 0 0 0 1.409 1.379h3.863a.866.866 0 0 1 .866.866.866.866 0 0 1-.865.866z" transform="translate(-28.042 152.616)"/>
                </g>
                <g id="그룹_832" data-name="그룹 832" transform="translate(20.013)">
                    <path id="패스_776" data-name="패스 776" class="cls-2" d="M85.874-195.735a.866.866 0 0 1-.866-.866v-3.874a1.382 1.382 0 0 0-1.362-1.4h-3.91a.866.866 0 0 1-.866-.866.867.867 0 0 1 .866-.866h3.91a3.116 3.116 0 0 1 3.094 3.13v3.874a.866.866 0 0 1-.866.868z" transform="translate(-78.87 203.606)"/>
                </g>
                <g id="그룹_833" data-name="그룹 833" transform="translate(20.082 20.083)">
                    <path id="패스_777" data-name="패스 777" class="cls-2" d="M83.758-144.745h-3.864a.866.866 0 0 1-.866-.866.866.866 0 0 1 .866-.866h3.864a1.4 1.4 0 0 0 1.409-1.379v-3.893a.866.866 0 0 1 .866-.866.866.866 0 0 1 .866.866v3.893a3.13 3.13 0 0 1-3.141 3.111z" transform="translate(-79.028 152.616)"/>
                </g>
            </g>
            <g id="그룹_842" data-name="그룹 842" transform="translate(-.141 10.167)">
                <g id="그룹_835" data-name="그룹 835" class="cls-3" transform="translate(0 .428)">
                    <path id="패스_778" data-name="패스 778" class="cls-2" d="M32.15-176.567v1.7h3.15l-3.285 4.034v1.244h6.022v-1.7h-3.332l3.225-3.968v-1.311z" transform="translate(-32.016 176.567)"/>
                </g>
                <g id="그룹_836" data-name="그룹 836" class="cls-3" transform="translate(7.045 .281)">
                    <path id="패스_779" data-name="패스 779" class="cls-2" d="M54.138-174.916a2.9 2.9 0 0 0-3.071-1.98 3.358 3.358 0 0 0-3.3 3.466c0 2.041.83 3.258 2.69 3.72a5.106 5.106 0 0 0 3.593-.656l-.79-1.291a3.052 3.052 0 0 1-2.034.415 1.488 1.488 0 0 1-1.465-1.3h4.576a4.759 4.759 0 0 0-.199-2.374zm-4.4.883a1.374 1.374 0 0 1 1.385-1.351 1.374 1.374 0 0 1 1.385 1.351z" transform="translate(-47.762 176.896)"/>
                </g>
                <g id="그룹_837" data-name="그룹 837" class="cls-3" transform="translate(15.148 .428)">
                    <path id="패스_780" data-name="패스 780" class="cls-2" d="M65.87-176.567v6.978h2.168v-3.489a1.39 1.39 0 0 1 1.251-1.448h1.933v-1.994s-1.667-.019-2.154 0a1.305 1.305 0 0 0-1.024.635v-.682z" transform="translate(-65.87 176.567)"/>
                </g>
                <g id="그룹_841" data-name="그룹 841" class="cls-3" transform="translate(20.884)">
                    <g id="그룹_838" data-name="그룹 838" transform="translate(4.32 3.432)">
                        <path id="패스_781" data-name="패스 781" class="cls-2" d="M88.64-169.751c-.279.034-.379.326-.214.43a.4.4 0 0 0 .555-.192.735.735 0 0 0 .054-.341 1.089 1.089 0 0 1-.395.103z" transform="translate(-88.345 169.853)"/>
                    </g>
                    <g id="그룹_839" data-name="그룹 839" transform="translate(1.913 2.199)">
                        <path id="패스_782" data-name="패스 782" class="cls-2" d="M83.519-172.609h-.553v.687h.545a.323.323 0 0 0 .316-.344.3.3 0 0 0-.308-.343z" transform="translate(-82.966 172.609)"/>
                    </g>
                    <g id="그룹_840" data-name="그룹 840">
                        <path id="패스_783" data-name="패스 783" class="cls-2" d="M86.461-174.421a293.65 293.65 0 0 1-.545 1.469c-.143.375-.386.549-.624.549h-.5l-.045-.575h.283a.25.25 0 0 0 .2-.345c-.051-.145-.687-1.849-.687-1.849h.7l.406 1.249.375-1.249h.191a3.93 3.93 0 0 0-3.6-2.351 3.93 3.93 0 0 0-3.929 3.93 3.93 3.93 0 0 0 3.929 3.93 3.93 3.93 0 0 0 3.93-3.93 3.934 3.934 0 0 0-.084-.828zm-5.2.372h-.66v.923h-.687v-2.783h1.316c.785 0 .919.477.919 1.066a.861.861 0 0 1-.885.794zm2.467.945a.177.177 0 0 1-.036-.1v-.114a.855.855 0 0 1-.66.25c-.459 0-.718-.252-.718-.622s.2-.537.631-.62.747-.016.747-.268-.393-.247-.507-.185a.266.266 0 0 0-.154.225h-.621s-.04-.694.963-.694.95.535.95.66v1.106a.916.916 0 0 0 .107.361z" transform="translate(-78.69 177.524)"/>
                    </g>
                </g>
            </g>
        </g>
    </g>
</svg>
