<svg xmlns="http://www.w3.org/2000/svg" width="26" height="26" viewBox="0 0 26 26">
    <defs>
        <clipPath id="l98x4ul1wa">
            <path data-name="사각형 516" transform="translate(-.455 -.455)" style="fill:none" d="M0 0h22v22H0z"/>
        </clipPath>
    </defs>
    <path data-name="사각형 400" style="fill:none" d="M0 0h26v26H0z"/>
    <g data-name="그룹 1243">
        <g data-name="그룹 1242" style="clip-path:url(#l98x4ul1wa)" transform="translate(2.455 2.455)">
            <path data-name="패스 855" d="M10.545 0a10.545 10.545 0 1 0 10.544 10.545A10.545 10.545 0 0 0 10.545 0" style="fill:#697f9c"/>
            <path data-name="패스 856" d="M131.428 70.2a8.865 8.865 0 0 1-2.636-.4.418.418 0 0 1-.094-.755l2.009-1.232a.418.418 0 1 1 .437.712l-1.156.709a8.036 8.036 0 0 0 9.469-7.9 7.984 7.984 0 0 0-3.1-6.335.418.418 0 1 1 .514-.659 8.865 8.865 0 0 1-5.443 15.86" transform="translate(-120.9 -50.789)" style="fill:#fff"/>
            <path data-name="패스 857" d="M26.078 38.522a.416.416 0 0 1-.236-.073 8.867 8.867 0 0 1 8.15-15.607.418.418 0 0 1 .073.745l-2.127 1.328a.418.418 0 0 1-.443-.709l1.36-.849a8.031 8.031 0 0 0-6.541 14.4.418.418 0 0 1-.237.763" transform="translate(-20.323 -20.589)" style="fill:#fff"/>
            <path data-name="패스 858" d="M146.814 116.751a2.626 2.626 0 0 0-1.111-1.083 3.741 3.741 0 0 0-1.774-.391h-3.458v9.246h1.657v-3.129h1.779a3.8 3.8 0 0 0 1.783-.388 2.639 2.639 0 0 0 1.12-1.079 3.249 3.249 0 0 0 .379-1.589 3.284 3.284 0 0 0-.375-1.587m-1.514 2.469a1.374 1.374 0 0 1-.6.591 2.149 2.149 0 0 1-1.011.214h-1.557v-3.359h1.548a2.23 2.23 0 0 1 1.02.208 1.34 1.34 0 0 1 .6.582 2.1 2.1 0 0 1 0 1.763" transform="translate(-132.67 -109.078)" style="fill:#fff"/>
        </g>
    </g>
</svg>
