<svg xmlns="http://www.w3.org/2000/svg" width="26" height="26" viewBox="0 0 26 26">
    <defs>
        <clipPath id="clip-path">
            <path id="사각형_414" data-name="사각형 414" style="fill:#697f9c" d="M0 0h21.192v19.427H0z"/>
        </clipPath>
        <style>
            .cls-4{fill:#697f9c;fill-rule:evenodd}
        </style>
    </defs>
    <g id="more_menu_05" transform="translate(-15 -518)">
        <path id="사각형_400" data-name="사각형 400" transform="translate(15 518)" style="fill:none" d="M0 0h26v26H0z"/>
        <g id="그룹_971" data-name="그룹 971" transform="translate(18.059 521.078)">
            <g id="그룹_970" data-name="그룹 970" style="clip-path:url(#clip-path)">
                <path id="패스_823" data-name="패스 823" class="cls-4" d="M17.055 14.283a.855.855 0 0 1-1.083-.543 11.932 11.932 0 0 0-6.934.186l2.471 3.844a.689.689 0 0 1-.348 1.038l-1.683.557-.354.059a1.124 1.124 0 0 1-.839-.379L4.887 15.3a3.694 3.694 0 0 1-4.645-1.837A3.345 3.345 0 0 1 0 12.209 3.627 3.627 0 0 1 2.2 8.96c7.542-3.7 8.748-7.833 8.748-7.833a.854.854 0 1 1 1.621-.54L17.594 13.2a.856.856 0 0 1-.538 1.083"/>
                <path id="패스_824" data-name="패스 824" class="cls-4" d="m12.019 9.621-1.3-.553A5.707 5.707 0 0 0 7.694 1.6L8.245.3a7.12 7.12 0 0 1 3.774 9.324" transform="translate(8.611 .332)"/>
                <path id="패스_825" data-name="패스 825" class="cls-4" d="m10.262 7.473-1.269-.539a3.282 3.282 0 0 0-1.742-4.3l.536-1.274a4.668 4.668 0 0 1 2.475 6.11" transform="translate(8.115 1.525)"/>
            </g>
        </g>
    </g>
</svg>
