<svg xmlns="http://www.w3.org/2000/svg" width="26" height="26" viewBox="0 0 26 26">
    <defs>
        <clipPath id="clip-path">
            <path id="사각형_415" data-name="사각형 415" class="cls-1" d="M0 0h21.508v21.476H0z"/>
        </clipPath>
        <style>
            .cls-1{fill:#697f9c}
        </style>
    </defs>
    <g id="more_menu_04" transform="translate(-195 -463)">
        <path id="사각형_400" data-name="사각형 400" transform="translate(195 463)" style="fill:none" d="M0 0h26v26H0z"/>
        <g id="그룹_974" data-name="그룹 974" transform="translate(197.386 464.86)">
            <g id="그룹_973" data-name="그룹 973" style="clip-path:url(#clip-path)">
                <path id="패스_826" data-name="패스 826" class="cls-1" d="M21.5 11.022a15.756 15.756 0 0 0-.9-4.113C20.157 5.834 17.357 0 10.875 0S1.825 4.958.869 7.079 0 11.978 0 14.128a2.679 2.679 0 0 0 2.509 2.838h.963c.575 1.121 3.1 4.51 7.242 4.51A8.535 8.535 0 0 0 18.008 17h1.022a2.923 2.923 0 0 0 2.479-2.629c0-1.4-.013-2.569-.013-3.345m-3.572 2.733a4.7 4.7 0 0 1-2.419 1.9 6.493 6.493 0 0 1-2.868.433 2.39 2.39 0 0 0-1.912-.866c-1.3 0-2.076.792-2.076 1.523s.7 1.583 2.061 1.583a2.435 2.435 0 0 0 1.986-.941s.627-.015 1.583-.1a6.958 6.958 0 0 0 1.762-.418 6.364 6.364 0 0 1-5.36 2.827 6.55 6.55 0 0 1-5.63-3.54c-.209-.4-.4-.463-.836-.657a2.945 2.945 0 0 1-.6-.329V11.7a1.455 1.455 0 0 0 .5.026.613.613 0 0 0 .61-.674v-.508a8.2 8.2 0 0 0 2.031-.986 10.4 10.4 0 0 0 2.006-2.01 5.063 5.063 0 0 1-.527 1.7A3.487 3.487 0 0 1 7.2 10.529s1.359.194 3.656-1.254a8.955 8.955 0 0 0 2.544-2.39 4.085 4.085 0 0 0 1.1 2.157 4.5 4.5 0 0 0 2.3 1.16v.791a.65.65 0 0 0 .565.742.991.991 0 0 0 .559-.043zm.424-3.928c-.254-1.59-1.552-6.875-7.584-6.875-6.171 0-7.371 5.369-7.586 6.875H1.944a10.1 10.1 0 0 1 .674-2.295A8.614 8.614 0 0 1 10.811 1.8c4.628 0 6.954 3.211 8.02 5.571a10.9 10.9 0 0 1 .8 2.456z"/>
                <path id="패스_827" data-name="패스 827" class="cls-1" d="M91.006 143.587a1.37 1.37 0 1 0 1.068 1.337 1.225 1.225 0 0 0-1.068-1.337" transform="translate(-82.931 -132.401)"/>
                <path id="패스_828" data-name="패스 828" class="cls-1" d="M159.828 143.587a1.371 1.371 0 1 0 1.068 1.337 1.225 1.225 0 0 0-1.068-1.337" transform="translate(-146.392 -132.401)"/>
            </g>
        </g>
    </g>
</svg>
