<svg id="zp_logo_big" xmlns="http://www.w3.org/2000/svg" width="191.62" height="20.031" viewBox="0 0 191.62 20.031">
    <defs>
        <style>
            .cls-2{fill:#3b4094;isolation:isolate}.cls-3{fill:#fff}
        </style>
    </defs>
    <path id="패스_844" data-name="패스 844" d="M10.42-9.48H8.58v3.16h-7.5v-8.3h7.5v3h1.84v-3.86h2.38v10.26h-2.38zM4.38-4.34h12.06v7.22H4.38zm12.06-.84h-2.4v-10.54h2.4zM6.88.78h7.06v-3.02H6.88zM6.2-12.58H3.46v4.22H6.2zm22.56 3.2h3.18v-6.34h2.54v18.6h-2.54V-7.2h-3.18v5.28h-9.02v-12.32h2.5v4.18h4.02v-4.18h2.5zm-6.52 5.34h4.02V-7.9h-4.02zm30.2-1.26v8.2H40.6v-8.2h2.5v2.1h6.84v-2.1zM49.94.82v-1.94H43.1V.82zm2.5-6.96h-2.52v-9.58h2.52zm-9.58-3.32a2.114 2.114 0 0 1-.47.64 10.128 10.128 0 0 1-.89.8q-.64.52-1.34 1.08T38.52-5.7l-1.46-1.88q.96-.68 1.65-1.22t1.37-1.12a4.109 4.109 0 0 0 1.08-1.36 3.809 3.809 0 0 0 .32-1.6v-2.16h2.56v2.12a5.553 5.553 0 0 0 .06.86 2.334 2.334 0 0 0 .23.71 2.989 2.989 0 0 0 .44.63 6.07 6.07 0 0 0 .69.64q.52.4 1.29.95t1.49 1.03l-1.4 1.76q-1.26-.84-2.56-1.8a4.75 4.75 0 0 1-1.4-1.32zm22.58 7.88v-3.16h-5.52v-2.1h2.38v-5.3h-2.26v-2.1h13.28v2.1h-2.18v5.3h2.34v2.1h-5.52v3.16h7.26V.54H58.18v-2.12zm-.62-5.26h3.8v-5.3h-3.8zM82.54.52h9.6v2.16H80v-6.24h2.54zm9.3-3h-2.52v-13.24h2.52zM81.76-5.32a5.455 5.455 0 0 1-2.01-.35 4.519 4.519 0 0 1-1.51-.95A4.159 4.159 0 0 1 77.29-8a4.117 4.117 0 0 1-.33-1.62v-1.12a4.117 4.117 0 0 1 .33-1.62 4.159 4.159 0 0 1 .95-1.38 4.519 4.519 0 0 1 1.51-.95 5.456 5.456 0 0 1 2.01-.35 5.455 5.455 0 0 1 2.01.35 4.519 4.519 0 0 1 1.51.95 4.159 4.159 0 0 1 .95 1.38 4.117 4.117 0 0 1 .33 1.62v1.12A4.117 4.117 0 0 1 86.23-8a4.159 4.159 0 0 1-.95 1.38 4.519 4.519 0 0 1-1.51.95 5.455 5.455 0 0 1-2.01.35zm0-7.54a2.573 2.573 0 0 0-1.01.19 2.274 2.274 0 0 0-.76.51 2.285 2.285 0 0 0-.48.74 2.273 2.273 0 0 0-.17.86v.76a2.249 2.249 0 0 0 .17.87 2.314 2.314 0 0 0 .48.73 2.274 2.274 0 0 0 .76.51 2.573 2.573 0 0 0 1.01.19 2.573 2.573 0 0 0 1.01-.19 2.274 2.274 0 0 0 .76-.51 2.314 2.314 0 0 0 .48-.73 2.249 2.249 0 0 0 .17-.87v-.76a2.273 2.273 0 0 0-.17-.86 2.285 2.285 0 0 0-.48-.74 2.275 2.275 0 0 0-.76-.51 2.573 2.573 0 0 0-1.01-.19zM111.62-1.6V.54H94.58V-1.6zm-2.18-2.54H96.78v-10.2h12.46v2.12h-9.96v1.92h9.8v2.12h-9.8v1.92h10.16z" transform="translate(80 16.133)" style="fill:#111"/>
    <g id="그룹_845" data-name="그룹 845">
        <path id="패스_784" data-name="패스 784" class="cls-2" d="M814.167 160.819v4.338h7.93l-8.267 10.3v3.177h15.153V174.3H820.6l8.115-10.128v-3.348z" transform="translate(-813.83 -159.742)"/>
        <path id="패스_785" data-name="패스 785" class="cls-2" d="M880.285 164.818c-1.111-3.055-3.334-5.052-7.728-5.052a8.515 8.515 0 0 0-8.317 8.842c0 5.206 2.088 8.313 6.768 9.49s9.041-1.673 9.041-1.673l-1.986-3.294a7.6 7.6 0 0 1-5.119 1.058 3.775 3.775 0 0 1-3.687-3.328h11.516a12.3 12.3 0 0 0-.488-6.043zm-11.079 2.253s.118-3.448 3.485-3.448 3.485 3.448 3.485 3.448z" transform="translate(-846.215 -159.059)"/>
        <path id="패스_786" data-name="패스 786" class="cls-2" d="M922.213 160.819v17.814h5.455v-8.907a3.527 3.527 0 0 1 3.149-3.7h4.866v-5.09s-4.2-.048-5.422 0a3.289 3.289 0 0 0-2.576 1.623v-1.742z" transform="translate(-883.495 -159.742)"/>
        <path id="패스_787" data-name="패스 787" class="cls-2" d="M981.439 169.408c-.359.955-.971 1.4-1.571 1.4H978.6l-.112-1.466h.712a.638.638 0 0 0 .511-.881c-.129-.369-1.729-4.712-1.729-4.712h1.773l1.021 3.183.943-3.183h.48a10.037 10.037 0 1 0 .833 4.025 10.165 10.165 0 0 0-.221-2.107c-.517 1.416-1.166 3.194-1.372 3.741z" transform="translate(-909.776 -157.756)"/>
        <g id="그룹_844" data-name="그룹 844" transform="translate(56.566 4.146)">
            <path id="패스_788" data-name="패스 788" class="cls-3" d="M975.343 169.277h-3.311v7h1.729v-2.323l1.661.011a2.167 2.167 0 0 0 2.234-2.009c-.001-1.478-.337-2.679-2.313-2.679zm-.214 3.21h-1.369v-1.729h1.392a.762.762 0 0 1 .774.864.813.813 0 0 1-.796.865z" transform="translate(-972.032 -169.277)"/>
            <path id="패스_789" data-name="패스 789" class="cls-3" d="M994.264 175.821c0-.314.135-1.661-2.391-1.661s-2.425 1.745-2.425 1.745h1.577a.67.67 0 0 1 .387-.567c.284-.156 1.274-.168 1.274.466s-.8.466-1.88.673-1.588.628-1.588 1.56.651 1.566 1.807 1.566a2.15 2.15 0 0 0 1.661-.628s0 .157-.006.286a.449.449 0 0 0 .09.253h1.762a2.315 2.315 0 0 1-.269-.909zm-1.706 2.065a1.011 1.011 0 0 1-1.4.483c-.415-.264-.163-1 .539-1.083a2.754 2.754 0 0 0 .994-.258 1.855 1.855 0 0 1-.134.858z" transform="translate(-983.174 -172.443)"/>
            <path id="패스_790" data-name="패스 790" class="cls-3" d="m1007.923 177.717-1.021-3.143h-1.773s1.6 4.288 1.729 4.653a.63.63 0 0 1-.511.87h-.712l.112 1.448h1.268c.6 0 1.212-.438 1.571-1.381.206-.54.855-2.3 1.373-3.7a9.8 9.8 0 0 0-.612-1.893h-.48z" transform="translate(-993.488 -172.711)"/>
        </g>
    </g>
</svg>
