<svg xmlns="http://www.w3.org/2000/svg" width="72" height="24" viewBox="0 0 72 24">
    <defs>
        <style>
            .cls-2,.cls-3{fill:#3b4094}.cls-3{isolation:isolate}
        </style>
    </defs>
    <g id="zeropay_payment" transform="translate(-15 -86)">
        <rect id="사각형_324" data-name="사각형 324" width="72" height="24" rx="12" transform="translate(15 86)" style="fill:#fff"/>
        <g id="icon_qr" transform="translate(24.997 91.6)">
            <g id="그룹_800" data-name="그룹 800" transform="translate(.998)">
                <g id="그룹_796" data-name="그룹 796">
                    <path id="패스_736" data-name="패스 736" class="cls-2" d="M281.76 13.876a.61.61 0 0 1-.61-.61v-1.953a1.58 1.58 0 0 1 1.578-1.578h1.946a.61.61 0 1 1 0 1.221h-1.946a.358.358 0 0 0-.357.357v1.953a.61.61 0 0 1-.611.61z" transform="translate(-281.15 -9.735)"/>
                </g>
                <g id="그룹_797" data-name="그룹 797" transform="translate(0 8.61)">
                    <path id="패스_737" data-name="패스 737" class="cls-2" d="M284.618 63.217h-1.89a1.58 1.58 0 0 1-1.578-1.578v-1.926a.61.61 0 0 1 1.221 0v1.925a.358.358 0 0 0 .357.357h1.89a.61.61 0 1 1 0 1.221z" transform="translate(-281.15 -59.103)"/>
                </g>
                <g id="그룹_798" data-name="그룹 798" transform="translate(8.59)">
                    <path id="패스_738" data-name="패스 738" class="cls-2" d="M333.926 13.876a.611.611 0 0 1-.61-.61v-1.953a.358.358 0 0 0-.357-.357h-1.946a.61.61 0 0 1 0-1.221h1.946a1.58 1.58 0 0 1 1.578 1.578v1.953a.61.61 0 0 1-.611.61z" transform="translate(-330.402 -9.735)"/>
                </g>
                <g id="그룹_799" data-name="그룹 799" transform="translate(8.645 8.61)">
                    <path id="패스_739" data-name="패스 739" class="cls-2" d="M333.22 63.217h-1.89a.61.61 0 0 1 0-1.221h1.89a.358.358 0 0 0 .357-.357v-1.926a.61.61 0 0 1 1.221 0v1.925a1.58 1.58 0 0 1-1.578 1.579z" transform="translate(-330.719 -59.103)"/>
                </g>
            </g>
            <g id="그룹_801" data-name="그룹 801" transform="translate(0 5.751)">
                <path id="패스_740" data-name="패스 740" class="cls-2" d="M289.535 43.934h-13.5a.61.61 0 0 1 0-1.221h13.5a.61.61 0 1 1 0 1.221z" transform="translate(-275.425 -42.713)"/>
            </g>
        </g>
        <g id="zeropay_logo" transform="translate(46.253 93.7)">
            <path id="패스_748" data-name="패스 748" class="cls-3" d="M813.976 261.419v1.858h3.446l-3.592 4.411v1.361h6.584v-1.858h-3.643l3.526-4.338v-1.434z" transform="translate(-813.83 -260.951)"/>
            <path id="패스_749" data-name="패스 749" class="cls-3" d="M871.211 262.531a3.173 3.173 0 0 0-3.358-2.165 3.673 3.673 0 0 0-3.614 3.79c0 2.231.907 3.563 2.941 4.068a5.582 5.582 0 0 0 3.929-.717l-.863-1.412a3.338 3.338 0 0 1-2.224.454 1.627 1.627 0 0 1-1.6-1.427h5a5.2 5.2 0 0 0-.211-2.591zm-4.814.966a1.515 1.515 0 0 1 3.029 0z" transform="translate(-856.535 -260.059)"/>
            <path id="패스_750" data-name="패스 750" class="cls-3" d="M922.213 261.419v7.631h2.37v-3.815a1.52 1.52 0 0 1 1.368-1.584h2.114v-2.18s-1.823-.021-2.356 0a1.428 1.428 0 0 0-1.119.7v-.746z" transform="translate(-905.65 -260.951)"/>
            <g id="그룹_805" data-name="그룹 805" transform="translate(22.835)" style="isolation:isolate">
                <path id="패스_751" data-name="패스 751" class="cls-2" d="M994.49 283.026c-.3.037-.414.356-.234.471a.439.439 0 0 0 .607-.21.807.807 0 0 0 .059-.373 1.2 1.2 0 0 1-.432.112z" transform="translate(-989.444 -279.161)"/>
                <path id="패스_752" data-name="패스 752" class="cls-2" d="M977.552 274.089h-.6v.751h.595a.354.354 0 0 0 .346-.376.331.331 0 0 0-.341-.375z" transform="translate(-974.855 -271.685)"/>
                <path id="패스_753" data-name="패스 753" class="cls-2" d="M971.753 261.749c-.225.609-.507 1.372-.6 1.606-.156.41-.422.6-.683.6h-.551l-.049-.629h.31a.274.274 0 0 0 .222-.378c-.056-.158-.751-2.022-.751-2.022h.771l.444 1.366.41-1.366h.209a4.3 4.3 0 1 0 .266.823zm-5.683.407h-.722v1.01h-.748v-3.043h1.439c.858 0 1 .522 1 1.166a.942.942 0 0 1-.97.866zm2.7 1.034a.2.2 0 0 1-.039-.11v-.124a.935.935 0 0 1-.722.273c-.5 0-.785-.275-.785-.68s.219-.588.69-.678.817-.017.817-.293-.43-.27-.554-.2a.291.291 0 0 0-.168.246h-.685s-.044-.758 1.054-.758 1.039.585 1.039.722v1.21a1 1 0 0 0 .117.4z" transform="translate(-963.255 -258.356)"/>
            </g>
        </g>
    </g>
</svg>
